<svg width="49" height="48" viewBox="0 0 49 48" fill="none" xmlns="http://www.w3.org/2000/svg">
<g clip-path="url(#clip0_11147_9151)">
<path fill-rule="evenodd" clip-rule="evenodd" d="M24.0798 24C23.2842 24 22.5211 24.3161 21.9585 24.8787C21.3959 25.4413 21.0798 26.2044 21.0798 27C21.0798 27.7956 21.3959 28.5587 21.9585 29.1213C22.5211 29.6839 23.2842 30 24.0798 30C24.8755 30 25.6385 29.6839 26.2012 29.1213C26.7638 28.5587 27.0798 27.7956 27.0798 27C27.0798 26.2044 26.7638 25.4413 26.2012 24.8787C25.6385 24.3161 24.8755 24 24.0798 24ZM23.0798 27C23.0798 26.7348 23.1852 26.4804 23.3727 26.2929C23.5603 26.1054 23.8146 26 24.0798 26C24.3451 26 24.5994 26.1054 24.7869 26.2929C24.9745 26.4804 25.0798 26.7348 25.0798 27C25.0798 27.2652 24.9745 27.5196 24.7869 27.7071C24.5994 27.8946 24.3451 28 24.0798 28C23.8146 28 23.5603 27.8946 23.3727 27.7071C23.1852 27.5196 23.0798 27.2652 23.0798 27Z" fill="#253238"/>
<path fill-rule="evenodd" clip-rule="evenodd" d="M24.0818 10C24.257 10.0004 24.429 10.0467 24.5806 10.1345C24.7322 10.2222 24.8582 10.3483 24.9458 10.5L39.9458 36.5C40.0335 36.652 40.0797 36.8245 40.0797 37C40.0797 37.1755 40.0335 37.348 39.9458 37.5C39.858 37.652 39.7318 37.7782 39.5797 37.866C39.4277 37.9538 39.2553 38 39.0798 38H9.07976C8.90464 37.9999 8.7326 37.9539 8.58087 37.8665C8.42913 37.7791 8.30301 37.6533 8.21513 37.5019C8.12724 37.3504 8.08068 37.1785 8.08008 37.0034C8.07949 36.8283 8.1249 36.6561 8.21176 36.504L15.7158 23.384L23.2158 10.497C23.3039 10.3455 23.4303 10.2199 23.5823 10.1327C23.7343 10.0455 23.9065 9.9997 24.0818 10ZM10.8038 36L14.9038 28.832C15.3688 30.116 16.3038 31.22 17.4928 32.06C19.2188 33.278 21.5498 34 24.0798 34C26.6098 34 28.9408 33.278 30.6668 32.06C31.8418 31.23 32.7678 30.142 33.2388 28.878L37.3498 36H10.8028H10.8038ZM24.0758 12.995L28.5978 20.833C27.2448 20.296 25.7028 20 24.0798 20C22.4318 20 20.8678 20.306 19.4998 20.857L24.0758 12.995ZM18.6458 23.575C17.2928 24.529 16.5798 25.755 16.5798 27C16.5798 28.245 17.2928 29.47 18.6458 30.426C19.9958 31.379 21.9148 32 24.0798 32C26.2448 32 28.1628 31.379 29.5138 30.426C30.8668 29.47 31.5798 28.245 31.5798 27C31.5798 25.755 30.8668 24.53 29.5138 23.574C28.1638 22.621 26.2448 22 24.0798 22C21.9148 22 19.9968 22.621 18.6458 23.574V23.575Z" fill="#253238"/>
<path d="M34.0798 19.01C33.8173 19.01 33.5655 19.1143 33.3798 19.3C33.1941 19.4856 33.0898 19.7374 33.0898 20C33.0898 20.2626 33.1941 20.5144 33.3798 20.7C33.5655 20.8857 33.8173 20.99 34.0798 20.99H39.0798C39.3424 20.99 39.5942 20.8857 39.7799 20.7C39.9655 20.5144 40.0698 20.2626 40.0698 20C40.0698 19.7374 39.9655 19.4856 39.7799 19.3C39.5942 19.1143 39.3424 19.01 39.0798 19.01H34.0798ZM37.8718 10.406C38.0294 10.6161 38.097 10.8801 38.0599 11.14C38.0228 11.3999 37.8839 11.6345 37.6738 11.792L33.6738 14.792C33.4638 14.9496 33.1998 15.0172 32.9398 14.9801C32.6799 14.9429 32.4454 14.8041 32.2878 14.594C32.1303 14.384 32.0627 14.1199 32.0998 13.86C32.1369 13.6001 32.2758 13.3656 32.4858 13.208L36.4858 10.208C36.6959 10.0505 36.9599 9.98283 37.2199 10.02C37.4798 10.0571 37.7143 10.196 37.8718 10.406ZM9.07984 19.01C8.81728 19.01 8.56547 19.1143 8.37981 19.3C8.19415 19.4856 8.08984 19.7374 8.08984 20C8.08984 20.2626 8.19415 20.5144 8.37981 20.7C8.56547 20.8857 8.81728 20.99 9.07984 20.99H14.0798C14.3424 20.99 14.5942 20.8857 14.7799 20.7C14.9655 20.5144 15.0698 20.2626 15.0698 20C15.0698 19.7374 14.9655 19.4856 14.7799 19.3C14.5942 19.1143 14.3424 19.01 14.0798 19.01H9.07984ZM11.2878 10.406C11.4454 10.196 11.6799 10.0571 11.9398 10.02C12.1998 9.98283 12.4638 10.0505 12.6738 10.208L16.6738 13.208C16.8839 13.3656 17.0228 13.6001 17.0599 13.86C17.097 14.1199 17.0294 14.384 16.8718 14.594C16.7143 14.8041 16.4798 14.9429 16.2199 14.9801C15.9599 15.0172 15.6959 14.9496 15.4858 14.792L11.4858 11.792C11.2758 11.6345 11.1369 11.3999 11.0998 11.14C11.0627 10.8801 11.1303 10.6161 11.2878 10.406Z" fill="#253238"/>
</g>
<defs>
<clipPath id="clip0_11147_9151">
<rect width="48" height="48" fill="white" transform="translate(0.079834)"/>
</clipPath>
</defs>
</svg>
