<svg width="49" height="48" viewBox="0 0 49 48" fill="none" xmlns="http://www.w3.org/2000/svg">
<g clip-path="url(#clip0_11147_9198)">
<path d="M25.1232 0.583252H24.0365C24.0148 0.583252 23.9941 0.591856 23.9788 0.607172C23.9634 0.622487 23.9548 0.643259 23.9548 0.664919V1.45992C23.9548 1.48158 23.9634 1.50235 23.9788 1.51767C23.9941 1.53298 24.0148 1.54159 24.0365 1.54159H25.1232C25.1339 1.54159 25.1445 1.53947 25.1544 1.53537C25.1643 1.53126 25.1733 1.52525 25.1809 1.51767C25.1885 1.51008 25.1945 1.50108 25.1986 1.49117C25.2027 1.48126 25.2048 1.47064 25.2048 1.45992V0.664919C25.2048 0.654194 25.2027 0.643574 25.1986 0.633666C25.1945 0.623758 25.1885 0.614755 25.1809 0.607172C25.1733 0.599588 25.1643 0.593573 25.1544 0.589468C25.1445 0.585364 25.1339 0.583252 25.1232 0.583252Z" stroke="#253238" stroke-width="0.0833333" stroke-linejoin="round"/>
<path d="M24.8716 1.39613C24.6501 1.42346 24.4263 1.42346 24.2047 1.39613C24.1804 1.39159 24.1579 1.38 24.1397 1.36275C24.1215 1.3455 24.1085 1.32325 24.1022 1.29863C24.0724 1.14258 24.0724 0.9823 24.1022 0.826252C24.1085 0.801627 24.1215 0.779419 24.1397 0.762127C24.1579 0.744835 24.1804 0.733294 24.2047 0.728752C24.4262 0.701419 24.6501 0.701419 24.8716 0.728752C24.896 0.733294 24.9185 0.744877 24.9367 0.762127C24.9549 0.779377 24.9679 0.801627 24.9742 0.826252C25.004 0.9823 25.004 1.14258 24.9742 1.29863C24.9679 1.32325 24.9549 1.34546 24.9367 1.36275C24.9185 1.38004 24.896 1.39159 24.8716 1.39613Z" stroke="#253238" stroke-width="0.0833333" stroke-linejoin="round"/>
<path d="M24.3716 0.375L24.5382 0.541667M24.7466 0.375L24.5799 0.541667" stroke="#253238" stroke-width="0.0833333" stroke-linecap="round" stroke-linejoin="round"/>
<path d="M25.2049 0.916748H25.1632M25.2049 1.08341H25.1632M25.2049 1.25008H25.1632M24.1216 1.54175V1.58341M24.9966 1.54175V1.58341" stroke="#253238" stroke-width="0.0833333" stroke-linecap="round"/>
</g>
<defs>
<clipPath id="clip0_11147_9198">
<rect width="2" height="2" fill="white" transform="translate(23.5798)"/>
</clipPath>
</defs>
</svg>
