<svg width="49" height="48" viewBox="0 0 49 48" fill="none" xmlns="http://www.w3.org/2000/svg">
<g clip-path="url(#clip0_11147_9190)">
<path d="M19.8298 26C19.8298 25.7348 19.7245 25.4804 19.5369 25.2929C19.3494 25.1054 19.0951 25 18.8298 25C18.5646 25 18.3103 25.1054 18.1227 25.2929C17.9352 25.4804 17.8298 25.7348 17.8298 26V26.999C17.8298 27.2642 17.9352 27.5186 18.1227 27.7061C18.3103 27.8936 18.5646 27.999 18.8298 27.999C19.0951 27.999 19.3494 27.8936 19.5369 27.7061C19.7245 27.5186 19.8298 27.2642 19.8298 26.999V26ZM23.8298 26C23.8298 25.7348 23.7245 25.4804 23.5369 25.2929C23.3494 25.1054 23.0951 25 22.8298 25C22.5646 25 22.3103 25.1054 22.1227 25.2929C21.9352 25.4804 21.8298 25.7348 21.8298 26V26.999C21.8298 27.2642 21.9352 27.5186 22.1227 27.7061C22.3103 27.8936 22.5646 27.999 22.8298 27.999C23.0951 27.999 23.3494 27.8936 23.5369 27.7061C23.7245 27.5186 23.8298 27.2642 23.8298 26.999V26ZM26.8258 25C27.0911 25 27.3454 25.1054 27.5329 25.2929C27.7205 25.4804 27.8258 25.7348 27.8258 26V26.999C27.8258 27.2642 27.7205 27.5186 27.5329 27.7061C27.3454 27.8936 27.0911 27.999 26.8258 27.999C26.5606 27.999 26.3063 27.8936 26.1187 27.7061C25.9312 27.5186 25.8258 27.2642 25.8258 26.999V26C25.8258 25.7348 25.9312 25.4804 26.1187 25.2929C26.3063 25.1054 26.5606 25 26.8258 25ZM31.8298 26C31.8298 25.7348 31.7245 25.4804 31.5369 25.2929C31.3494 25.1054 31.0951 25 30.8298 25C30.5646 25 30.3103 25.1054 30.1227 25.2929C29.9352 25.4804 29.8298 25.7348 29.8298 26V26.999C29.8298 27.2642 29.9352 27.5186 30.1227 27.7061C30.3103 27.8936 30.5646 27.999 30.8298 27.999C31.0951 27.999 31.3494 27.8936 31.5369 27.7061C31.7245 27.5186 31.8298 27.2642 31.8298 26.999V26Z" fill="#253238"/>
<path fill-rule="evenodd" clip-rule="evenodd" d="M19.8299 8C19.5672 7.99987 19.307 8.0515 19.0643 8.15195C18.8215 8.2524 18.6009 8.3997 18.4151 8.58543C18.2292 8.77116 18.0818 8.99169 17.9813 9.2344C17.8807 9.47712 17.8289 9.73727 17.8289 10H16.4089C16.0563 9.99984 15.71 10.0929 15.4049 10.2697C15.0999 10.4466 14.847 10.7009 14.6719 11.007L10.0959 19.007C9.33293 20.34 10.2959 21.999 11.8299 22V34C11.8299 35.5913 12.4621 37.1174 13.5873 38.2426C14.7125 39.3679 16.2386 40 17.8299 40H31.8299C33.4212 40 34.9474 39.3679 36.0726 38.2426C37.1978 37.1174 37.8299 35.5913 37.8299 34V22C39.3649 21.999 40.3269 20.34 39.5649 19.007L34.9879 11.007C34.813 10.7011 34.5602 10.4468 34.2554 10.27C33.9505 10.0932 33.6044 10 33.2519 10H24.8299C24.8299 9.46957 24.6192 8.96086 24.2441 8.58579C23.8691 8.21071 23.3604 8 22.8299 8H19.8299ZM17.8299 12H16.4089L11.8299 20H37.8279L33.2519 12H24.8299V13C24.8299 13.2652 24.7246 13.5196 24.537 13.7071C24.3495 13.8946 24.0951 14 23.8299 14C23.5647 14 23.3104 13.8946 23.1228 13.7071C22.9353 13.5196 22.8299 13.2652 22.8299 13V10H19.8299V13C19.8299 13.2652 19.7246 13.5196 19.537 13.7071C19.3495 13.8946 19.0951 14 18.8299 14C18.5647 14 18.3104 13.8946 18.1228 13.7071C17.9353 13.5196 17.8299 13.2652 17.8299 13V12ZM35.8299 22H13.8299V34C13.8299 35.0609 14.2514 36.0783 15.0015 36.8284C15.7517 37.5786 16.7691 38 17.8299 38H19.8299V33C19.8299 32.2044 20.146 31.4413 20.7086 30.8787C21.2712 30.3161 22.0343 30 22.8299 30H26.8299C27.6256 30 28.3886 30.3161 28.9513 30.8787C29.5139 31.4413 29.8299 32.2044 29.8299 33V38H31.8299C32.8908 38 33.9082 37.5786 34.6584 36.8284C35.4085 36.0783 35.8299 35.0609 35.8299 34V22ZM27.8299 33V38H21.8299V33C21.8299 32.7348 21.9353 32.4804 22.1228 32.2929C22.3104 32.1054 22.5647 32 22.8299 32H26.8299C27.0951 32 27.3495 32.1054 27.537 32.2929C27.7246 32.4804 27.8299 32.7348 27.8299 33Z" fill="#253238"/>
</g>
<defs>
<clipPath id="clip0_11147_9190">
<rect width="48" height="48" fill="white" transform="translate(0.829834)"/>
</clipPath>
</defs>
</svg>
