<svg width="49" height="48" viewBox="0 0 49 48" fill="none" xmlns="http://www.w3.org/2000/svg">
<g clip-path="url(#clip0_11147_9183)">
<path fill-rule="evenodd" clip-rule="evenodd" d="M13.0798 24.7199L10.4718 25.2409C10.1818 25.2989 9.8825 25.2918 9.59552 25.2202C9.30854 25.1485 9.04102 25.0142 8.81223 24.8267C8.58344 24.6392 8.39909 24.4033 8.27244 24.136C8.14579 23.8687 8.08001 23.5767 8.07983 23.2809V14.6329C8.07975 14.2541 8.18722 13.8831 8.38974 13.5631C8.59227 13.243 8.88152 12.987 9.22383 12.8249L16.7808 9.2449C17.3836 8.9596 18.0742 8.92178 18.7045 9.13955C19.3348 9.35732 19.8547 9.81335 20.1528 10.4099L20.8208 11.7449C21.1371 12.3778 21.6675 12.8781 22.3178 13.1569C23.4428 13.6389 24.7168 13.6389 25.8418 13.1569C26.4921 12.8781 27.0226 12.3778 27.3388 11.7449L28.0068 10.4099C28.3051 9.81353 28.8251 9.35772 29.4554 9.14014C30.0857 8.92256 30.7762 8.96053 31.3788 9.2459L38.9358 12.8259C39.2778 12.9879 39.5669 13.2435 39.7694 13.5632C39.9719 13.8829 40.0795 14.2535 40.0798 14.6319V23.2789C40.0798 23.5748 40.0141 23.8669 39.8875 24.1344C39.761 24.4018 39.5766 24.6378 39.3478 24.8254C39.119 25.0129 38.8514 25.1474 38.5644 25.2191C38.2773 25.2908 37.978 25.2979 37.6878 25.2399L35.0798 24.7199V36.9999C35.0798 37.5303 34.8691 38.039 34.494 38.4141C34.119 38.7892 33.6103 38.9999 33.0798 38.9999H15.0798C14.5494 38.9999 14.0407 38.7892 13.6656 38.4141C13.2905 38.039 13.0798 37.5303 13.0798 36.9999V24.7199ZM17.6368 11.0529C17.7668 10.9914 17.9156 10.9833 18.0515 11.0302C18.1874 11.0771 18.2995 11.1754 18.3638 11.3039L19.0318 12.6389C19.5596 13.695 20.4447 14.5297 21.5298 14.9949C22.3356 15.3402 23.2032 15.5183 24.0798 15.5183C24.9565 15.5183 25.824 15.3402 26.6298 14.9949C27.7148 14.53 28.5998 13.6956 29.1278 12.6399L29.7958 11.3039C29.8604 11.1755 29.9725 11.0775 30.1084 11.0308C30.2443 10.9841 30.393 10.9924 30.5228 11.0539L38.0798 14.6319V23.2789L35.0798 22.6789V20.4999C35.0798 20.2347 34.9745 19.9803 34.7869 19.7928C34.5994 19.6053 34.3451 19.4999 34.0798 19.4999C33.8146 19.4999 33.5603 19.6053 33.3727 19.7928C33.1852 19.9803 33.0798 20.2347 33.0798 20.4999V31.9999H15.0798V20.4999C15.0798 20.2347 14.9745 19.9803 14.7869 19.7928C14.5994 19.6053 14.3451 19.4999 14.0798 19.4999C13.8146 19.4999 13.5603 19.6053 13.3727 19.7928C13.1852 19.9803 13.0798 20.2347 13.0798 20.4999V22.6799L10.0798 23.2799V14.6329L17.6368 11.0529ZM33.0798 33.9999V36.9999H15.0798V33.9999H33.0798Z" fill="#253238"/>
</g>
<defs>
<clipPath id="clip0_11147_9183">
<rect width="48" height="48" fill="white" transform="translate(0.079834)"/>
</clipPath>
</defs>
</svg>
