<svg width="49" height="48" viewBox="0 0 49 48" fill="none" xmlns="http://www.w3.org/2000/svg">
<g clip-path="url(#clip0_11147_9175)">
<path d="M32.3298 25C32.3298 24.7348 32.2245 24.4804 32.0369 24.2929C31.8494 24.1054 31.5951 24 31.3298 24C31.0646 24 30.8103 24.1054 30.6227 24.2929C30.4352 24.4804 30.3298 24.7348 30.3298 25V26C30.3298 26.2652 30.4352 26.5196 30.6227 26.7071C30.8103 26.8946 31.0646 27 31.3298 27C31.5951 27 31.8494 26.8946 32.0369 26.7071C32.2245 26.5196 32.3298 26.2652 32.3298 26V25ZM24.3298 21C24.5951 21 24.8494 21.1054 25.0369 21.2929C25.2245 21.4804 25.3298 21.7348 25.3298 22V28C25.3298 28.2652 25.2245 28.5196 25.0369 28.7071C24.8494 28.8946 24.5951 29 24.3298 29C24.0646 29 23.8103 28.8946 23.6227 28.7071C23.4352 28.5196 23.3298 28.2652 23.3298 28V22C23.3298 21.7348 23.4352 21.4804 23.6227 21.2929C23.8103 21.1054 24.0646 21 24.3298 21Z" fill="#253238"/>
<path fill-rule="evenodd" clip-rule="evenodd" d="M27.7277 10.3601C25.7955 9.90897 23.7885 9.88168 21.8447 10.2801C17.4177 11.1341 14.3597 13.7831 12.5217 17.2201C10.6967 20.6331 10.0757 24.8071 10.4237 28.8111V28.8151C10.5237 29.9341 10.9087 31.4291 11.5037 32.7661C12.0757 34.0501 12.9567 35.4491 14.1987 36.0421L14.2067 36.0451C17.0637 37.3781 20.1857 38.0451 23.3367 37.9981C27.0357 37.9971 29.5437 37.4851 31.1577 36.9481C31.7739 36.7496 32.3705 36.4945 32.9397 36.1861C33.094 36.1009 33.2442 36.0084 33.3897 35.9091C33.4587 35.8621 33.5287 35.8121 33.5917 35.7581C35.1687 34.4021 36.3757 32.2781 37.1717 30.0361C37.9717 27.7811 38.3937 25.2961 38.3187 23.1261V23.1161C38.2315 21.1325 37.7146 19.1915 36.8036 17.4273C35.8927 15.663 34.6095 14.1177 33.0427 12.8981C31.4754 11.6777 29.6621 10.8118 27.7277 10.3601ZM35.2857 29.3671C34.5567 31.4231 33.5097 33.1841 32.3037 34.2271C32.1956 34.3032 32.0835 34.3733 31.9677 34.4371C31.5072 34.6853 31.0249 34.8905 30.5267 35.0501C29.1417 35.5101 26.8467 35.9981 23.3297 35.9981H23.3147C20.4642 36.0423 17.6407 35.4395 15.0567 34.2351C14.6067 34.0191 14.1067 33.4481 13.6487 32.6001C18.0215 33.5586 22.5604 33.4547 26.8847 32.2971C27.5401 32.1256 28.1214 31.7441 28.5394 31.211C28.9575 30.6779 29.1894 30.0225 29.1997 29.3451V23.2441C29.2127 21.6815 28.6783 20.1637 27.6892 18.9539C26.7001 17.7442 25.3187 16.9188 23.7847 16.6211L16.6697 15.0171C18.1197 13.6591 19.9597 12.6791 22.2297 12.2421L22.2407 12.2401C24.7461 11.7262 27.3508 12.0445 29.6587 13.1467C31.9666 14.2488 33.8515 16.0745 35.0267 18.3461C35.804 19.8511 36.2455 21.5069 36.3207 23.1991C36.3847 25.0841 36.0127 27.3181 35.2857 29.3671ZM15.1737 16.7301C14.8487 17.1841 14.5537 17.6631 14.2857 18.1641C12.6827 21.1601 12.0937 24.9281 12.4157 28.6371C12.4587 29.1081 12.5707 29.6961 12.7457 30.3171C17.2025 31.5436 21.9056 31.5599 26.3707 30.3641L26.3777 30.3621C26.6092 30.3017 26.8146 30.1675 26.963 29.9798C27.1113 29.7921 27.1944 29.5612 27.1997 29.3221V23.2301C27.2097 22.1263 26.8302 21.0544 26.1278 20.203C25.4254 19.3515 24.4452 18.7751 23.3597 18.5751L15.1737 16.7301Z" fill="#253238"/>
</g>
<defs>
<clipPath id="clip0_11147_9175">
<rect width="48" height="48" fill="white" transform="translate(0.329834)"/>
</clipPath>
</defs>
</svg>
