<svg width="49" height="48" viewBox="0 0 49 48" fill="none" xmlns="http://www.w3.org/2000/svg">
<g clip-path="url(#clip0_11147_9168)">
<path fill-rule="evenodd" clip-rule="evenodd" d="M21.0289 14.316L21.0269 14.321L21.0169 14.351L20.9789 14.479C20.7805 15.1492 20.6456 15.8365 20.5759 16.532C20.5179 17.133 20.5249 17.721 20.6339 18.212C20.6879 18.452 20.7609 18.651 20.8499 18.812C23.2469 18.002 25.7699 18.827 27.1599 21H36.5799C36.8451 20.9956 37.1012 21.0968 37.2918 21.2812C37.4825 21.4657 37.592 21.7183 37.5964 21.9835C37.6008 22.2487 37.4996 22.5048 37.3152 22.6954C37.1307 22.8861 36.8781 22.9956 36.6129 23C35.586 23.0341 34.5779 23.2852 33.6549 23.7367C32.732 24.1883 31.9151 24.8301 31.2579 25.62L32.2059 26.31C33.1207 25.4743 34.3133 25.008 35.5523 25.0016C36.7914 24.9952 37.9887 25.4491 38.9121 26.2753C39.8355 27.1015 40.4193 28.2411 40.5502 29.4732C40.6812 30.7054 40.3499 31.9422 39.6207 32.944C38.8915 33.9458 37.8163 34.6412 36.6036 34.8953C35.3908 35.1494 34.1269 34.9441 33.0569 34.3193C31.9869 33.6945 31.187 32.6946 30.8123 31.5136C30.4376 30.3325 30.5148 29.0544 31.0289 27.927L30.2009 27.324C29.8214 28.179 29.6102 29.0991 29.5789 30.034C29.5701 30.2931 29.461 30.5387 29.2746 30.7189C29.0882 30.8991 28.8392 30.9999 28.5799 31H21.5799C21.3203 31.0001 21.0708 30.8993 20.8842 30.7189C20.6976 30.5384 20.5885 30.2925 20.5799 30.033C20.5475 29.0584 20.3195 28.1002 19.9097 27.2153C19.4998 26.3305 18.9163 25.537 18.1939 24.882L17.1289 26.478C18.0012 27.3581 18.5156 28.5307 18.5724 29.7685C18.6292 31.0063 18.2244 32.2211 17.4364 33.1774C16.6484 34.1336 15.5334 34.7633 14.3076 34.9442C13.0818 35.1251 11.8324 34.8444 10.8018 34.1564C9.77122 33.4685 9.03275 32.4225 8.7296 31.221C8.42644 30.0196 8.5802 28.7484 9.16107 27.6538C9.74193 26.5593 10.7085 25.7195 11.8734 25.2971C13.0383 24.8748 14.3186 24.9001 15.4659 25.368L16.5419 23.755C15.6091 23.2917 14.5878 23.0339 13.5469 22.999C13.2876 22.9904 13.0418 22.8815 12.8614 22.695C12.681 22.5086 12.58 22.2594 12.5799 22V20.5C12.5799 18.5109 13.3701 16.6032 14.7766 15.1967C16.1831 13.7902 18.0908 13 20.0799 13C20.2382 13 20.3943 13.0376 20.5353 13.1097C20.6762 13.1819 20.798 13.2864 20.8907 13.4148C20.9834 13.5432 21.0442 13.6918 21.0682 13.8483C21.0923 14.0048 21.0788 14.1647 21.0289 14.315V14.316ZM16.1909 16.611C16.8987 15.9031 17.7862 15.4017 18.7579 15.161C18.6879 15.518 18.6249 15.92 18.5839 16.343C18.5169 17.055 18.5099 17.873 18.6819 18.647C18.8549 19.424 19.2269 20.235 19.9799 20.8C20.1264 20.9097 20.3001 20.9772 20.4823 20.995C20.6644 21.0128 20.848 20.9803 21.0129 20.901C22.8509 20.018 24.7809 20.645 25.6859 22.449C25.7692 22.6147 25.8969 22.754 26.0548 22.8513C26.2126 22.9486 26.3945 23.0001 26.5799 23H31.0949C29.2213 24.4836 27.9923 26.6328 27.6639 29H22.4959C22.2181 26.9987 21.2947 25.1427 19.866 23.7139C18.4372 22.2852 16.5813 21.3618 14.5799 21.084V20.5C14.5797 19.7776 14.7217 19.0623 14.998 18.3949C15.2742 17.7274 15.6792 17.1209 16.1899 16.61L16.1909 16.611ZM32.7039 29.145C32.502 29.8233 32.5463 30.5511 32.8291 31.1998C33.1119 31.8485 33.6149 32.3764 34.2493 32.6901C34.8836 33.0039 35.6085 33.0832 36.2957 32.9142C36.9829 32.7452 37.5882 32.3387 38.0047 31.7665C38.4211 31.1944 38.6219 30.4934 38.5716 29.7875C38.5212 29.0816 38.2229 28.4162 37.7294 27.909C37.2359 27.4018 36.579 27.0853 35.8747 27.0156C35.1705 26.9459 34.4643 27.1274 33.8809 27.528L36.1679 29.191C36.3825 29.3469 36.5263 29.5817 36.5677 29.8437C36.6092 30.1057 36.5448 30.3734 36.3889 30.588C36.233 30.8026 35.9982 30.9464 35.7362 30.9878C35.4742 31.0293 35.2065 30.9649 34.9919 30.809L32.7039 29.145ZM12.7479 29.445L14.3179 27.091C13.6319 26.917 12.9066 26.9911 12.27 27.3002C11.6334 27.6093 11.1265 28.1335 10.8391 28.7802C10.5516 29.4268 10.5019 30.1543 10.6989 30.834C10.8959 31.5137 11.3268 32.1019 11.9156 32.4946C12.5043 32.8873 13.2129 33.0593 13.9161 32.9801C14.6193 32.9009 15.2719 32.5756 15.7585 32.0618C16.2451 31.548 16.5345 30.8787 16.5753 30.1722C16.6162 29.4657 16.406 28.7675 15.9819 28.201L14.4119 30.555C14.2647 30.7757 14.0359 30.9288 13.7758 30.9808C13.5157 31.0327 13.2456 30.9792 13.0249 30.832C12.8042 30.6848 12.6511 30.456 12.5991 30.1959C12.5472 29.9358 12.6007 29.6657 12.7479 29.445Z" fill="#253238"/>
</g>
<defs>
<clipPath id="clip0_11147_9168">
<rect width="48" height="48" fill="white" transform="translate(0.579834)"/>
</clipPath>
</defs>
</svg>
