<svg width="49" height="48" viewBox="0 0 49 48" fill="none" xmlns="http://www.w3.org/2000/svg">
<g clip-path="url(#clip0_11147_9160)">
<path d="M20.8298 30C20.8298 29.7348 20.9352 29.4804 21.1227 29.2929C21.3103 29.1054 21.5646 29 21.8298 29H27.8298C28.0951 29 28.3494 29.1054 28.5369 29.2929C28.7245 29.4804 28.8298 29.7348 28.8298 30C28.8298 30.2652 28.7245 30.5196 28.5369 30.7071C28.3494 30.8946 28.0951 31 27.8298 31H21.8298C21.5646 31 21.3103 30.8946 21.1227 30.7071C20.9352 30.5196 20.8298 30.2652 20.8298 30ZM23.8298 23C23.5646 23 23.3103 23.1054 23.1227 23.2929C22.9352 23.4804 22.8298 23.7348 22.8298 24C22.8298 24.2652 22.9352 24.5196 23.1227 24.7071C23.3103 24.8946 23.5646 25 23.8298 25H25.8298C26.0951 25 26.3494 24.8946 26.5369 24.7071C26.7245 24.5196 26.8298 24.2652 26.8298 24C26.8298 23.7348 26.7245 23.4804 26.5369 23.2929C26.3494 23.1054 26.0951 23 25.8298 23H23.8298Z" fill="#253238"/>
<path fill-rule="evenodd" clip-rule="evenodd" d="M39.0048 18.239L40.5368 16.707C40.719 16.5184 40.8198 16.2658 40.8175 16.0036C40.8152 15.7414 40.7101 15.4906 40.5247 15.3052C40.3392 15.1198 40.0884 15.0146 39.8262 15.0123C39.564 15.01 39.3114 15.1108 39.1228 15.293L37.4628 16.953L35.4258 12.296C34.9972 11.316 34.2922 10.4823 33.397 9.89692C32.5019 9.31152 31.4554 8.99982 30.3858 9H19.2738C18.2044 9.00002 17.1582 9.3118 16.2632 9.8972C15.3683 10.4826 14.6634 11.3162 14.2348 12.296L12.1978 16.953L10.5378 15.293C10.3492 15.1108 10.0966 15.01 9.83443 15.0123C9.57224 15.0146 9.32142 15.1198 9.13601 15.3052C8.95061 15.4906 8.84544 15.7414 8.84316 16.0036C8.84088 16.2658 8.94168 16.5184 9.12383 16.707L10.6558 18.239C10.1142 18.4693 9.65225 18.8539 9.32757 19.3449C9.00288 19.8358 8.82978 20.4114 8.82983 21V35C8.82983 35.7956 9.1459 36.5587 9.70851 37.1213C10.2711 37.6839 11.0342 38 11.8298 38H13.8298C14.6255 38 15.3885 37.6839 15.9512 37.1213C16.5138 36.5587 16.8298 35.7956 16.8298 35V33.666C22.1539 34.1112 27.5058 34.1112 32.8298 33.666V35C32.8298 35.7956 33.1459 36.5587 33.7085 37.1213C34.2711 37.6839 35.0342 38 35.8298 38H37.8298C38.6255 38 39.3885 37.6839 39.9512 37.1213C40.5138 36.5587 40.8298 35.7956 40.8298 35V21C40.83 20.4115 40.657 19.836 40.3325 19.3451C40.008 18.8541 39.5463 18.4695 39.0048 18.239ZM19.2728 11C18.5923 10.9999 17.9265 11.1982 17.3569 11.5707C16.7873 11.9431 16.3386 12.4735 16.0658 13.097L13.9728 17.882L19.0198 16.023C22.773 14.6583 26.8867 14.6583 30.6398 16.023L30.6428 16.025L35.6868 17.882L33.5938 13.097C33.321 12.4734 32.8722 11.9428 32.3024 11.5704C31.7326 11.1979 31.0666 10.9997 30.3858 11H19.2728ZM38.8298 27.297C34.1838 27.842 29.5068 28.077 24.8298 28C20.1518 28.07 15.4748 27.828 10.8298 27.277V30.164C10.8298 30.4119 10.9219 30.651 11.0882 30.8348C11.2545 31.0187 11.4832 31.1342 11.7298 31.159L15.4768 31.534C21.6968 32.156 27.9628 32.156 34.1828 31.534L37.9288 31.159C38.1757 31.1344 38.4046 31.019 38.5711 30.8351C38.7376 30.6513 38.8298 30.4121 38.8298 30.164V27.297ZM38.8298 32.993C38.6029 33.0729 38.3672 33.1253 38.1278 33.149L34.8298 33.479V35C34.8298 35.2652 34.9352 35.5196 35.1227 35.7071C35.3103 35.8946 35.5646 36 35.8298 36H37.8298C38.0951 36 38.3494 35.8946 38.5369 35.7071C38.7245 35.5196 38.8298 35.2652 38.8298 35V32.993ZM10.8298 32.993V35C10.8298 35.2652 10.9352 35.5196 11.1227 35.7071C11.3103 35.8946 11.5646 36 11.8298 36H13.8298C14.0951 36 14.3494 35.8946 14.5369 35.7071C14.7245 35.5196 14.8298 35.2652 14.8298 35V33.479L11.5308 33.149C11.2918 33.1252 11.0564 33.0729 10.8298 32.993ZM10.8298 25.27C10.8698 25.27 10.9088 25.272 10.9488 25.277C13.2339 25.5508 15.5276 25.7483 17.8258 25.869C17.7758 24.998 17.2088 24.478 16.4228 24.127C16.0513 23.9655 15.6629 23.8461 15.2648 23.771C15.1053 23.74 14.9445 23.7159 14.7828 23.699L14.7618 23.698H14.7548C13.443 23.6011 12.1342 23.4677 10.8298 23.298V25.27ZM10.8298 21.29C10.8728 21.29 10.9158 21.293 10.9588 21.298C11.9458 21.427 13.1868 21.574 14.9028 21.703H14.9208L14.9668 21.708L15.1228 21.725C15.2518 21.74 15.4318 21.766 15.6448 21.808C16.0678 21.89 16.6468 22.037 17.2368 22.3C18.4038 22.82 19.8098 23.905 19.8298 25.955C21.4898 26.01 23.1528 26.025 24.8148 26H24.8458C26.5078 26.028 28.1698 26.015 29.8298 25.962C29.8468 23.907 31.2548 22.822 32.4228 22.3C33.0128 22.037 33.5918 21.89 34.0148 21.808C34.2392 21.7645 34.4655 21.7312 34.6928 21.708L34.7388 21.704L34.7538 21.703H34.7558C36.4758 21.574 37.7648 21.426 38.6938 21.299C38.7398 21.293 38.7848 21.289 38.8298 21.289V21C38.8298 20.7348 38.7245 20.4804 38.5369 20.2929C38.3494 20.1054 38.0951 20 37.8298 20H36.1858C35.8323 19.9999 35.4816 19.9372 35.1498 19.815L29.9558 17.903H29.9538C26.6438 16.6999 23.0159 16.6999 19.7058 17.903H19.7038L14.5098 19.815C14.1778 19.9373 13.8267 20 13.4728 20H11.8298C11.5646 20 11.3103 20.1054 11.1227 20.2929C10.9352 20.4804 10.8298 20.7348 10.8298 21V21.29ZM38.8298 23.299C37.8718 23.427 36.5838 23.572 34.9048 23.697H34.8978L34.8778 23.699C34.7162 23.716 34.5554 23.74 34.3958 23.771C33.9974 23.846 33.6087 23.9654 33.2368 24.127C32.4468 24.479 31.8808 25.002 31.8328 25.879C34.1308 25.762 36.4258 25.568 38.7128 25.297C38.7518 25.292 38.7908 25.29 38.8298 25.29V23.299Z" fill="#253238"/>
</g>
<defs>
<clipPath id="clip0_11147_9160">
<rect width="48" height="48" fill="white" transform="translate(0.829834)"/>
</clipPath>
</defs>
</svg>
