<svg width="49" height="48" viewBox="0 0 49 48" fill="none" xmlns="http://www.w3.org/2000/svg">
<g clip-path="url(#clip0_11147_9209)">
<path d="M16.3298 13C16.3298 12.7348 16.4352 12.4804 16.6227 12.2929C16.8103 12.1054 17.0646 12 17.3298 12H29.3298C29.5951 12 29.8494 12.1054 30.0369 12.2929C30.2245 12.4804 30.3298 12.7348 30.3298 13C30.3298 13.2652 30.2245 13.5196 30.0369 13.7071C29.8494 13.8946 29.5951 14 29.3298 14H17.3298C17.0646 14 16.8103 13.8946 16.6227 13.7071C16.4352 13.5196 16.3298 13.2652 16.3298 13ZM23.3298 34C23.0646 34 22.8103 34.1054 22.6227 34.2929C22.4352 34.4804 22.3298 34.7348 22.3298 35C22.3298 35.2652 22.4352 35.5196 22.6227 35.7071C22.8103 35.8946 23.0646 36 23.3298 36H24.3298C24.5951 36 24.8494 35.8946 25.0369 35.7071C25.2245 35.5196 25.3298 35.2652 25.3298 35C25.3298 34.7348 25.2245 34.4804 25.0369 34.2929C24.8494 34.1054 24.5951 34 24.3298 34H23.3298Z" fill="#253238"/>
<path fill-rule="evenodd" clip-rule="evenodd" d="M12.3298 12C12.3298 10.9391 12.7513 9.92172 13.5014 9.17157C14.2516 8.42143 15.269 8 16.3298 8H30.3298C31.3907 8 32.4081 8.42143 33.1583 9.17157C33.9084 9.92172 34.3298 10.9391 34.3298 12V14C34.5951 14 34.8494 14.1054 35.0369 14.2929C35.2245 14.4804 35.3298 14.7348 35.3298 15V16C35.3298 16.2652 35.2245 16.5196 35.0369 16.7071C34.8494 16.8946 34.5951 17 34.3298 17V19C34.5951 19 34.8494 19.1054 35.0369 19.2929C35.2245 19.4804 35.3298 19.7348 35.3298 20V21C35.3298 21.2652 35.2245 21.5196 35.0369 21.7071C34.8494 21.8946 34.5951 22 34.3298 22V36C34.3298 37.0609 33.9084 38.0783 33.1583 38.8284C32.4081 39.5786 31.3907 40 30.3298 40H16.3298C15.269 40 14.2516 39.5786 13.5014 38.8284C12.7513 38.0783 12.3298 37.0609 12.3298 36V12ZM16.3298 10C15.7994 10 15.2907 10.2107 14.9156 10.5858C14.5405 10.9609 14.3298 11.4696 14.3298 12V36C14.3298 36.5304 14.5405 37.0391 14.9156 37.4142C15.2907 37.7893 15.7994 38 16.3298 38H30.3298C30.8603 38 31.369 37.7893 31.744 37.4142C32.1191 37.0391 32.3298 36.5304 32.3298 36V12C32.3298 11.4696 32.1191 10.9609 31.744 10.5858C31.369 10.2107 30.8603 10 30.3298 10H16.3298Z" fill="#253238"/>
</g>
<defs>
<clipPath id="clip0_11147_9209">
<rect width="48" height="48" fill="white" transform="translate(0.329834)"/>
</clipPath>
</defs>
</svg>
