<svg width="80" height="12" viewBox="0 0 80 12" fill="none" xmlns="http://www.w3.org/2000/svg">
<g clip-path="url(#clip0_11147_9118)">
<g clip-path="url(#clip1_11147_9118)">
<g clip-path="url(#clip2_11147_9118)">
<path d="M4.98993 1.86993C5.33793 1.06793 6.47993 1.06793 6.82593 1.86993L7.50593 3.44193C7.57698 3.60599 7.69071 3.74799 7.83528 3.85317C7.97985 3.95834 8.14997 4.02283 8.32793 4.03993L10.0319 4.20293C10.9019 4.28593 11.2549 5.36793 10.5999 5.94693L9.31293 7.08693C9.17908 7.20523 9.07937 7.35722 9.02415 7.5271C8.96893 7.69698 8.96022 7.87855 8.99893 8.05293L9.37193 9.73093C9.56193 10.5859 8.63993 11.2549 7.88593 10.8089L6.41793 9.93893C6.26356 9.84741 6.0874 9.79911 5.90793 9.79911C5.72846 9.79911 5.5523 9.84741 5.39793 9.93893L3.92993 10.8089C3.17693 11.2549 2.25493 10.5859 2.44493 9.73093L2.81693 8.05293C2.85557 7.87879 2.84692 7.69747 2.79189 7.52779C2.73685 7.35812 2.63743 7.20625 2.50393 7.08793L1.21593 5.94793C0.56193 5.36793 0.91393 4.28593 1.78393 4.20293L3.48993 4.03993C3.66789 4.02283 3.83801 3.95834 3.98258 3.85317C4.12715 3.74799 4.24088 3.60599 4.31193 3.44193L4.98993 1.86993Z" fill="white" style="mix-blend-mode:multiply"/>
</g>
</g>
<g clip-path="url(#clip3_11147_9118)">
<g clip-path="url(#clip4_11147_9118)">
<path d="M21.9899 1.86993C22.3379 1.06793 23.4799 1.06793 23.8259 1.86993L24.5059 3.44193C24.577 3.60599 24.6907 3.74799 24.8353 3.85317C24.9798 3.95834 25.15 4.02283 25.3279 4.03993L27.0319 4.20293C27.9019 4.28593 28.2549 5.36793 27.5999 5.94693L26.3129 7.08693C26.1791 7.20523 26.0794 7.35722 26.0241 7.5271C25.9689 7.69698 25.9602 7.87855 25.9989 8.05293L26.3719 9.73093C26.5619 10.5859 25.6399 11.2549 24.8859 10.8089L23.4179 9.93893C23.2636 9.84741 23.0874 9.79911 22.9079 9.79911C22.7285 9.79911 22.5523 9.84741 22.3979 9.93893L20.9299 10.8089C20.1769 11.2549 19.2549 10.5859 19.4449 9.73093L19.8169 8.05293C19.8556 7.87879 19.8469 7.69747 19.7919 7.52779C19.7369 7.35812 19.6374 7.20625 19.5039 7.08793L18.2159 5.94793C17.5619 5.36793 17.9139 4.28593 18.7839 4.20293L20.4899 4.03993C20.6679 4.02283 20.838 3.95834 20.9826 3.85317C21.1272 3.74799 21.2409 3.60599 21.3119 3.44193L21.9899 1.86993Z" fill="white" style="mix-blend-mode:multiply"/>
</g>
</g>
<g clip-path="url(#clip5_11147_9118)">
<g clip-path="url(#clip6_11147_9118)">
<path d="M38.9899 1.86993C39.3379 1.06793 40.4799 1.06793 40.8259 1.86993L41.5059 3.44193C41.577 3.60599 41.6907 3.74799 41.8353 3.85317C41.9798 3.95834 42.15 4.02283 42.3279 4.03993L44.0319 4.20293C44.9019 4.28593 45.2549 5.36793 44.5999 5.94693L43.3129 7.08693C43.1791 7.20523 43.0794 7.35722 43.0241 7.5271C42.9689 7.69698 42.9602 7.87855 42.9989 8.05293L43.3719 9.73093C43.5619 10.5859 42.6399 11.2549 41.8859 10.8089L40.4179 9.93893C40.2636 9.84741 40.0874 9.79911 39.9079 9.79911C39.7285 9.79911 39.5523 9.84741 39.3979 9.93893L37.9299 10.8089C37.1769 11.2549 36.2549 10.5859 36.4449 9.73093L36.8169 8.05293C36.8556 7.87879 36.8469 7.69747 36.7919 7.52779C36.7369 7.35812 36.6374 7.20625 36.5039 7.08793L35.2159 5.94793C34.5619 5.36793 34.9139 4.28593 35.7839 4.20293L37.4899 4.03993C37.6679 4.02283 37.838 3.95834 37.9826 3.85317C38.1272 3.74799 38.2409 3.60599 38.3119 3.44193L38.9899 1.86993Z" fill="white" style="mix-blend-mode:multiply"/>
</g>
</g>
<g clip-path="url(#clip7_11147_9118)">
<g clip-path="url(#clip8_11147_9118)">
<path d="M55.9899 1.86993C56.3379 1.06793 57.4799 1.06793 57.8259 1.86993L58.5059 3.44193C58.577 3.60599 58.6907 3.74799 58.8353 3.85317C58.9798 3.95834 59.15 4.02283 59.3279 4.03993L61.0319 4.20293C61.9019 4.28593 62.2549 5.36793 61.5999 5.94693L60.3129 7.08693C60.1791 7.20523 60.0794 7.35722 60.0241 7.5271C59.9689 7.69698 59.9602 7.87855 59.9989 8.05293L60.3719 9.73093C60.5619 10.5859 59.6399 11.2549 58.8859 10.8089L57.4179 9.93893C57.2636 9.84741 57.0874 9.79911 56.9079 9.79911C56.7285 9.79911 56.5523 9.84741 56.3979 9.93893L54.9299 10.8089C54.1769 11.2549 53.2549 10.5859 53.4449 9.73093L53.8169 8.05293C53.8556 7.87879 53.8469 7.69747 53.7919 7.52779C53.7369 7.35812 53.6374 7.20625 53.5039 7.08793L52.2159 5.94793C51.5619 5.36793 51.9139 4.28593 52.7839 4.20293L54.4899 4.03993C54.6679 4.02283 54.838 3.95834 54.9826 3.85317C55.1272 3.74799 55.2409 3.60599 55.3119 3.44193L55.9899 1.86993Z" fill="white" style="mix-blend-mode:multiply"/>
</g>
</g>
<g clip-path="url(#clip9_11147_9118)">
<g clip-path="url(#clip10_11147_9118)">
<path d="M72.9899 1.86993C73.3379 1.06793 74.4799 1.06793 74.8259 1.86993L75.5059 3.44193C75.577 3.60599 75.6907 3.74799 75.8353 3.85317C75.9798 3.95834 76.15 4.02283 76.3279 4.03993L78.0319 4.20293C78.9019 4.28593 79.2549 5.36793 78.5999 5.94693L77.3129 7.08693C77.1791 7.20523 77.0794 7.35722 77.0241 7.5271C76.9689 7.69698 76.9602 7.87855 76.9989 8.05293L77.3719 9.73093C77.5619 10.5859 76.6399 11.2549 75.8859 10.8089L74.4179 9.93893C74.2636 9.84741 74.0874 9.79911 73.9079 9.79911C73.7285 9.79911 73.5523 9.84741 73.3979 9.93893L71.9299 10.8089C71.1769 11.2549 70.2549 10.5859 70.4449 9.73093L70.8169 8.05293C70.8556 7.87879 70.8469 7.69747 70.7919 7.52779C70.7369 7.35812 70.6374 7.20625 70.5039 7.08793L69.2159 5.94793C68.5619 5.36793 68.9139 4.28593 69.7839 4.20293L71.4899 4.03993C71.6679 4.02283 71.838 3.95834 71.9826 3.85317C72.1272 3.74799 72.2409 3.60599 72.3119 3.44193L72.9899 1.86993Z" fill="white" style="mix-blend-mode:multiply"/>
</g>
</g>
</g>
<defs>
<clipPath id="clip0_11147_9118">
<rect width="74.25" height="11" fill="white" transform="translate(0.209961 0.949951)"/>
</clipPath>
<clipPath id="clip1_11147_9118">
<rect width="11" height="11" fill="white" transform="translate(0.209961 0.949951)"/>
</clipPath>
<clipPath id="clip2_11147_9118">
<rect width="11" height="11" fill="white" transform="translate(0.209961 0.949951)"/>
</clipPath>
<clipPath id="clip3_11147_9118">
<rect width="11" height="11" fill="white" transform="translate(17.21 0.949951)"/>
</clipPath>
<clipPath id="clip4_11147_9118">
<rect width="11" height="11" fill="white" transform="translate(17.21 0.949951)"/>
</clipPath>
<clipPath id="clip5_11147_9118">
<rect width="11" height="11" fill="white" transform="translate(34.21 0.949951)"/>
</clipPath>
<clipPath id="clip6_11147_9118">
<rect width="11" height="11" fill="white" transform="translate(34.21 0.949951)"/>
</clipPath>
<clipPath id="clip7_11147_9118">
<rect width="11" height="11" fill="white" transform="translate(51.21 0.949951)"/>
</clipPath>
<clipPath id="clip8_11147_9118">
<rect width="11" height="11" fill="white" transform="translate(51.21 0.949951)"/>
</clipPath>
<clipPath id="clip9_11147_9118">
<rect width="11" height="11" fill="white" transform="translate(68.21 0.949951)"/>
</clipPath>
<clipPath id="clip10_11147_9118">
<rect width="11" height="11" fill="white" transform="translate(68.21 0.949951)"/>
</clipPath>
</defs>
</svg>
