<svg width="80" height="12" viewBox="0 0 80 12" fill="none" xmlns="http://www.w3.org/2000/svg">
<g clip-path="url(#clip0_11147_9088)">
<g clip-path="url(#clip1_11147_9088)">
<g clip-path="url(#clip2_11147_9088)">
<path d="M5.26996 1.86993C5.61796 1.06793 6.75996 1.06793 7.10596 1.86993L7.78596 3.44193C7.85701 3.60599 7.97074 3.74799 8.11531 3.85317C8.25988 3.95834 8.43 4.02283 8.60796 4.03993L10.312 4.20293C11.182 4.28593 11.535 5.36793 10.88 5.94693L9.59296 7.08693C9.45911 7.20523 9.3594 7.35722 9.30418 7.5271C9.24896 7.69698 9.24025 7.87855 9.27896 8.05293L9.65196 9.73093C9.84196 10.5859 8.91996 11.2549 8.16596 10.8089L6.69796 9.93893C6.54359 9.84741 6.36743 9.79911 6.18796 9.79911C6.00849 9.79911 5.83233 9.84741 5.67796 9.93893L4.20996 10.8089C3.45696 11.2549 2.53496 10.5859 2.72496 9.73093L3.09696 8.05293C3.1356 7.87879 3.12695 7.69747 3.07192 7.52779C3.01688 7.35812 2.91746 7.20625 2.78396 7.08793L1.49596 5.94793C0.84196 5.36793 1.19396 4.28593 2.06396 4.20293L3.76996 4.03993C3.94792 4.02283 4.11804 3.95834 4.26261 3.85317C4.40718 3.74799 4.52091 3.60599 4.59196 3.44193L5.26996 1.86993Z" fill="white" style="mix-blend-mode:multiply"/>
</g>
</g>
<g clip-path="url(#clip3_11147_9088)">
<g clip-path="url(#clip4_11147_9088)">
<path d="M22.27 1.86993C22.618 1.06793 23.76 1.06793 24.106 1.86993L24.786 3.44193C24.857 3.60599 24.9707 3.74799 25.1153 3.85317C25.2599 3.95834 25.43 4.02283 25.608 4.03993L27.312 4.20293C28.182 4.28593 28.535 5.36793 27.88 5.94693L26.593 7.08693C26.4591 7.20523 26.3594 7.35722 26.3042 7.5271C26.249 7.69698 26.2402 7.87855 26.279 8.05293L26.652 9.73093C26.842 10.5859 25.92 11.2549 25.166 10.8089L23.698 9.93893C23.5436 9.84741 23.3674 9.79911 23.188 9.79911C23.0085 9.79911 22.8323 9.84741 22.678 9.93893L21.21 10.8089C20.457 11.2549 19.535 10.5859 19.725 9.73093L20.097 8.05293C20.1356 7.87879 20.127 7.69747 20.0719 7.52779C20.0169 7.35812 19.9175 7.20625 19.784 7.08793L18.496 5.94793C17.842 5.36793 18.194 4.28593 19.064 4.20293L20.77 4.03993C20.9479 4.02283 21.118 3.95834 21.2626 3.85317C21.4072 3.74799 21.5209 3.60599 21.592 3.44193L22.27 1.86993Z" fill="white" style="mix-blend-mode:multiply"/>
</g>
</g>
<g clip-path="url(#clip5_11147_9088)">
<g clip-path="url(#clip6_11147_9088)">
<path d="M39.27 1.86993C39.618 1.06793 40.76 1.06793 41.106 1.86993L41.786 3.44193C41.857 3.60599 41.9707 3.74799 42.1153 3.85317C42.2599 3.95834 42.43 4.02283 42.608 4.03993L44.312 4.20293C45.182 4.28593 45.535 5.36793 44.88 5.94693L43.593 7.08693C43.4591 7.20523 43.3594 7.35722 43.3042 7.5271C43.249 7.69698 43.2402 7.87855 43.279 8.05293L43.652 9.73093C43.842 10.5859 42.92 11.2549 42.166 10.8089L40.698 9.93893C40.5436 9.84741 40.3674 9.79911 40.188 9.79911C40.0085 9.79911 39.8323 9.84741 39.678 9.93893L38.21 10.8089C37.457 11.2549 36.535 10.5859 36.725 9.73093L37.097 8.05293C37.1356 7.87879 37.127 7.69747 37.0719 7.52779C37.0169 7.35812 36.9175 7.20625 36.784 7.08793L35.496 5.94793C34.842 5.36793 35.194 4.28593 36.064 4.20293L37.77 4.03993C37.9479 4.02283 38.118 3.95834 38.2626 3.85317C38.4072 3.74799 38.5209 3.60599 38.592 3.44193L39.27 1.86993Z" fill="white" style="mix-blend-mode:multiply"/>
</g>
</g>
<g clip-path="url(#clip7_11147_9088)">
<g clip-path="url(#clip8_11147_9088)">
<path d="M56.27 1.86993C56.618 1.06793 57.76 1.06793 58.106 1.86993L58.786 3.44193C58.857 3.60599 58.9707 3.74799 59.1153 3.85317C59.2599 3.95834 59.43 4.02283 59.608 4.03993L61.312 4.20293C62.182 4.28593 62.535 5.36793 61.88 5.94693L60.593 7.08693C60.4591 7.20523 60.3594 7.35722 60.3042 7.5271C60.249 7.69698 60.2402 7.87855 60.279 8.05293L60.652 9.73093C60.842 10.5859 59.92 11.2549 59.166 10.8089L57.698 9.93893C57.5436 9.84741 57.3674 9.79911 57.188 9.79911C57.0085 9.79911 56.8323 9.84741 56.678 9.93893L55.21 10.8089C54.457 11.2549 53.535 10.5859 53.725 9.73093L54.097 8.05293C54.1356 7.87879 54.127 7.69747 54.0719 7.52779C54.0169 7.35812 53.9175 7.20625 53.784 7.08793L52.496 5.94793C51.842 5.36793 52.194 4.28593 53.064 4.20293L54.77 4.03993C54.9479 4.02283 55.118 3.95834 55.2626 3.85317C55.4072 3.74799 55.5209 3.60599 55.592 3.44193L56.27 1.86993Z" fill="white" style="mix-blend-mode:multiply"/>
</g>
</g>
<g clip-path="url(#clip9_11147_9088)">
<g clip-path="url(#clip10_11147_9088)">
<path d="M73.27 1.86993C73.618 1.06793 74.76 1.06793 75.106 1.86993L75.786 3.44193C75.857 3.60599 75.9707 3.74799 76.1153 3.85317C76.2599 3.95834 76.43 4.02283 76.608 4.03993L78.312 4.20293C79.182 4.28593 79.535 5.36793 78.88 5.94693L77.593 7.08693C77.4591 7.20523 77.3594 7.35722 77.3042 7.5271C77.249 7.69698 77.2402 7.87855 77.279 8.05293L77.652 9.73093C77.842 10.5859 76.92 11.2549 76.166 10.8089L74.698 9.93893C74.5436 9.84741 74.3674 9.79911 74.188 9.79911C74.0085 9.79911 73.8323 9.84741 73.678 9.93893L72.21 10.8089C71.457 11.2549 70.535 10.5859 70.725 9.73093L71.097 8.05293C71.1356 7.87879 71.127 7.69747 71.0719 7.52779C71.0169 7.35812 70.9175 7.20625 70.784 7.08793L69.496 5.94793C68.842 5.36793 69.194 4.28593 70.064 4.20293L71.77 4.03993C71.9479 4.02283 72.118 3.95834 72.2626 3.85317C72.4072 3.74799 72.5209 3.60599 72.592 3.44193L73.27 1.86993Z" fill="white" style="mix-blend-mode:multiply"/>
</g>
</g>
</g>
<defs>
<clipPath id="clip0_11147_9088">
<rect width="75.84" height="11" fill="white" transform="translate(0.48999 0.949951)"/>
</clipPath>
<clipPath id="clip1_11147_9088">
<rect width="11" height="11" fill="white" transform="translate(0.48999 0.949951)"/>
</clipPath>
<clipPath id="clip2_11147_9088">
<rect width="11" height="11" fill="white" transform="translate(0.48999 0.949951)"/>
</clipPath>
<clipPath id="clip3_11147_9088">
<rect width="11" height="11" fill="white" transform="translate(17.49 0.949951)"/>
</clipPath>
<clipPath id="clip4_11147_9088">
<rect width="11" height="11" fill="white" transform="translate(17.49 0.949951)"/>
</clipPath>
<clipPath id="clip5_11147_9088">
<rect width="11" height="11" fill="white" transform="translate(34.49 0.949951)"/>
</clipPath>
<clipPath id="clip6_11147_9088">
<rect width="11" height="11" fill="white" transform="translate(34.49 0.949951)"/>
</clipPath>
<clipPath id="clip7_11147_9088">
<rect width="11" height="11" fill="white" transform="translate(51.49 0.949951)"/>
</clipPath>
<clipPath id="clip8_11147_9088">
<rect width="11" height="11" fill="white" transform="translate(51.49 0.949951)"/>
</clipPath>
<clipPath id="clip9_11147_9088">
<rect width="11" height="11" fill="white" transform="translate(68.49 0.949951)"/>
</clipPath>
<clipPath id="clip10_11147_9088">
<rect width="11" height="11" fill="white" transform="translate(68.49 0.949951)"/>
</clipPath>
</defs>
</svg>
