<svg width="503" height="148" viewBox="0 0 503 148" fill="none" xmlns="http://www.w3.org/2000/svg">
<g clip-path="url(#clip0_11147_7709)">
<g clip-path="url(#clip1_11147_7709)">
<path d="M108.396 92.2V65.877C108.396 63.733 107.541 61.677 106.021 60.16C104.499 58.6433 102.439 57.7917 100.29 57.7919H77.9841C76.4115 57.7924 74.9029 57.1692 73.7891 56.059C73.2383 55.51 72.8013 54.8578 72.5031 54.1396C72.2048 53.4215 72.0512 52.6516 72.0511 51.8739V41.454C72.0508 40.4035 71.7703 39.3721 71.2386 38.4661C70.7069 37.5601 69.9431 36.8124 69.0261 36.2999V29.4149C68.9992 28.942 68.7923 28.4973 68.448 28.172C68.1036 27.8466 67.6478 27.6654 67.1741 27.6654C66.7004 27.6654 66.2446 27.8466 65.9002 28.172C65.5559 28.4973 65.349 28.942 65.3221 29.4149V35.573H46.6571C45.0852 35.5718 43.577 36.1939 42.4631 37.3029C41.9127 37.8515 41.4759 38.5033 41.1776 39.2209C40.8794 39.9385 40.7256 40.7078 40.7251 41.4849V44.933C40.7251 45.7105 40.8785 46.4804 41.1766 47.1985C41.4747 47.9167 41.9115 48.5689 42.4621 49.1179C43.5763 50.228 45.0853 50.8509 46.6581 50.85H50.7821C52.3551 50.8493 53.8641 51.4725 54.9781 52.5829C55.5287 53.132 55.9655 53.7842 56.2636 54.5024C56.5617 55.2205 56.7151 55.9904 56.7151 56.768V92.2309" stroke="white" stroke-width="2" stroke-linecap="round" stroke-linejoin="round" style="mix-blend-mode:multiply"/>
<path d="M72.0561 97.4459V82.5679C72.0571 81.7719 72.3761 81.0079 72.9401 80.4449C73.5052 79.8816 74.2701 79.5645 75.0681 79.5629H90.0581C90.8581 79.5629 91.6241 79.8799 92.1881 80.4429C92.7541 81.0069 93.0711 81.7709 93.0711 82.5679V97.4459M61.9401 35.5429V29.3849C61.9132 28.912 61.7063 28.4672 61.3619 28.1419C61.0176 27.8166 60.5618 27.6354 60.0881 27.6354C59.6144 27.6354 59.1586 27.8166 58.8142 28.1419C58.4699 28.4672 58.263 28.912 58.2361 29.3849V35.5429H61.9401Z" stroke="white" stroke-width="2" stroke-linecap="round" stroke-linejoin="round" style="mix-blend-mode:multiply"/>
<path d="M204.022 114.235H276.959M215.831 124.628H265.15M82.5679 105.04C65.4859 105.04 49.8839 98.654 40.8339 87.952C40.5501 87.619 40.3349 87.2334 40.2005 86.817C40.0661 86.4007 40.0152 85.962 40.0508 85.5259C40.0864 85.0899 40.2077 84.6652 40.4078 84.2762C40.608 83.8872 40.8829 83.5415 41.2169 83.259C41.892 82.6873 42.7662 82.4065 43.6479 82.4781C44.5296 82.5497 45.3469 82.9679 45.9209 83.641C53.6069 92.724 67.6529 98.365 82.5679 98.365C97.4839 98.365 111.529 92.724 119.215 83.641C119.643 83.1393 120.209 82.7754 120.843 82.595C121.477 82.4147 122.15 82.426 122.778 82.6276C123.406 82.8291 123.96 83.2119 124.37 83.7276C124.781 84.2434 125.029 84.8691 125.085 85.526C125.157 86.406 124.875 87.279 124.303 87.952C115.252 98.654 99.6509 105.04 82.5679 105.04Z" stroke="white" stroke-width="2" stroke-linecap="round" stroke-linejoin="round" style="mix-blend-mode:multiply"/>
<path d="M240.491 68.728L241.286 59.814" stroke="#803700" stroke-width="2" stroke-linecap="round" stroke-linejoin="round"/>
<path d="M263.441 9.63692L263.065 9.40492C261.138 8.38114 258.971 7.89416 256.791 7.99492C248.815 7.99492 245.247 11.8079 243.789 15.4989C240.156 24.82 236.68 34.2013 233.361 43.6389H216.206C216.206 48.9279 219.961 54.0509 224.91 56.3319C230.754 59.0419 236.852 59.3949 243.148 59.1089C249.62 58.4783 255.742 55.8785 260.69 51.6599C268.047 45.2039 270.179 36.0139 270.787 27.9379C271.394 19.8619 269.461 11.8399 263.441 9.63692Z" fill="#F49709" stroke="#F49709" stroke-width="2" stroke-linecap="round" stroke-linejoin="round"/>
<path d="M260.515 8.45892C264.437 9.91292 265.497 13.2629 265.243 16.5689C264.989 19.8739 262.006 30.7489 260.117 37.0179C259.853 37.8976 259.312 38.6685 258.574 39.2159C257.835 39.7639 256.939 40.0594 256.019 40.0589H234.081" stroke="#803700" stroke-width="2" stroke-linecap="round" stroke-linejoin="round"/>
<path d="M299.88 89.984H261.647C261.647 84.288 259.419 78.824 255.452 74.797C251.484 70.769 246.104 68.506 240.493 68.506C234.883 68.506 229.502 70.769 225.535 74.796C221.568 78.824 219.339 84.288 219.339 89.984H181.096" stroke="white" stroke-width="2" stroke-linecap="round" stroke-linejoin="round" style="mix-blend-mode:multiply"/>
<path opacity="0.2" d="M260.521 8.45792L260.454 8.33692C259.251 8.06438 258.02 7.93482 256.787 7.95092C248.811 7.95092 245.243 11.7639 243.785 15.4549C240.78 23.1679 237.466 31.9819 234.594 40.0799H256.025C256.944 40.0803 257.839 39.7848 258.577 39.2374C259.315 38.6899 259.857 37.9194 260.123 37.0399C262.012 30.7699 264.994 19.9719 265.249 16.5899C265.503 13.2069 264.442 9.91292 260.521 8.45792Z" fill="#803700" stroke="#803700" stroke-width="2" stroke-linecap="round" stroke-linejoin="round"/>
<path fill-rule="evenodd" clip-rule="evenodd" d="M224.729 89.828C224.718 86.715 225.634 83.6691 227.359 81.078C229.086 78.4831 231.544 76.459 234.422 75.262C237.302 74.0634 240.473 73.7444 243.534 74.345C246.595 74.945 249.409 76.439 251.619 78.635C253.828 80.83 255.335 83.6319 255.949 86.685C256.562 89.7366 256.253 92.9016 255.061 95.777C253.869 98.655 251.848 101.114 249.256 102.842C246.661 104.573 243.612 105.496 240.493 105.496C236.323 105.499 232.321 103.851 229.362 100.913C227.9 99.4601 226.738 97.7333 225.943 95.8313C225.148 93.9294 224.735 91.8894 224.729 89.828Z" fill="white" style="mix-blend-mode:multiply"/>
<path fill-rule="evenodd" clip-rule="evenodd" d="M241.233 80.5169L243.31 82.5999C243.387 82.6667 243.476 82.7176 243.573 82.7497C243.67 82.7818 243.772 82.7945 243.873 82.7869H246.756C246.97 82.7926 247.173 82.8806 247.324 83.0327C247.474 83.1848 247.56 83.3891 247.563 83.6029V86.4999C247.557 86.6071 247.577 86.7142 247.621 86.812C247.666 86.9098 247.733 86.9955 247.817 87.0619L249.883 89.0789C250.026 89.2266 250.106 89.424 250.106 89.6294C250.106 89.8348 250.026 90.0322 249.883 90.1799L247.817 92.2739C247.732 92.3537 247.664 92.4513 247.621 92.5598C247.577 92.6683 247.557 92.7851 247.563 92.9019V95.7889C247.56 96.0038 247.475 96.2094 247.325 96.3631C247.174 96.5168 246.971 96.607 246.756 96.6149H243.873C243.767 96.6081 243.661 96.6265 243.563 96.6686C243.465 96.7106 243.378 96.7751 243.31 96.8569L241.233 98.8849C241.085 99.0282 240.887 99.1083 240.681 99.1083C240.474 99.1083 240.276 99.0282 240.128 98.8849L238.063 96.8019C237.907 96.6618 237.709 96.5768 237.499 96.5599H234.616C234.4 96.5545 234.194 96.4655 234.041 96.3115C233.889 96.1575 233.802 95.9505 233.799 95.7339V92.8469C233.803 92.7384 233.782 92.6304 233.738 92.5311C233.694 92.4318 233.628 92.3438 233.545 92.2739L231.479 90.2689C231.341 90.1186 231.265 89.922 231.265 89.7179C231.265 89.5139 231.341 89.3173 231.479 89.1669L233.545 87.1499C233.698 86.9749 233.787 86.7539 233.799 86.5219V83.6239C233.802 83.4085 233.89 83.2028 234.042 83.0506C234.195 82.8985 234.401 82.8118 234.616 82.8089H237.499C237.606 82.8126 237.713 82.7917 237.81 82.7478C237.908 82.704 237.995 82.6383 238.063 82.5559L240.128 80.4839C240.287 80.3594 240.485 80.2945 240.687 80.3006C240.888 80.3066 241.082 80.3831 241.233 80.5169Z" fill="#385EF9"/>
<path d="M239.169 93.4639C238.947 93.4629 238.733 93.3852 238.562 93.2439L236.352 91.3489C236.248 91.2743 236.16 91.1786 236.094 91.068C236.029 90.9575 235.987 90.8345 235.972 90.707C235.958 90.5796 235.97 90.4506 236.008 90.3282C236.046 90.2057 236.108 90.0924 236.192 89.9952C236.276 89.8981 236.378 89.8192 236.494 89.7636C236.609 89.708 236.735 89.6768 236.863 89.6719C236.992 89.6674 237.12 89.6896 237.239 89.7373C237.359 89.785 237.467 89.8571 237.557 89.9489L239.059 91.249L243.665 86.1369C243.745 86.0457 243.843 85.9713 243.952 85.918C244.061 85.8647 244.18 85.8336 244.301 85.8264C244.422 85.8193 244.544 85.8362 244.658 85.8763C244.773 85.9164 244.879 85.9788 244.969 86.0599C245.149 86.2265 245.257 86.457 245.269 86.702C245.282 86.947 245.198 87.1871 245.035 87.3709L239.832 93.1559C239.75 93.252 239.649 93.3293 239.534 93.3824C239.42 93.4356 239.295 93.4634 239.169 93.4639Z" fill="white" style="mix-blend-mode:multiply"/>
<path d="M418.342 30.14C418.343 28.8908 418.097 27.6537 417.618 26.4999C417.14 25.346 416.438 24.298 415.553 23.416C413.763 21.6325 411.338 20.632 408.811 20.634H375.74C373.132 20.633 370.55 21.144 368.14 22.139C365.732 23.1331 363.542 24.5915 361.697 26.431C359.854 28.2688 358.391 30.4521 357.392 32.856C356.394 35.2585 355.88 37.8344 355.88 40.436V67.103C355.88 69.993 357.031 72.766 359.08 74.81C361.132 76.8548 363.91 78.0027 366.807 78.002H377.921C380.817 78.0026 383.596 76.8547 385.647 74.81C386.661 73.799 387.466 72.5979 388.015 71.2753C388.564 69.9528 388.847 68.535 388.847 67.103V55.88C388.847 55.248 389.099 54.642 389.547 54.195C389.996 53.7478 390.604 53.4968 391.237 53.497H408.839C411.366 53.4974 413.789 52.4958 415.578 50.712C416.463 49.8304 417.165 48.7829 417.644 47.6296C418.123 46.4763 418.37 45.2398 418.37 43.991L418.342 30.14Z" stroke="white" stroke-width="2" stroke-linecap="round" stroke-linejoin="round" style="mix-blend-mode:multiply"/>
<path d="M417.638 26.564H430.516C432.189 26.5653 433.793 27.2294 434.977 28.411C435.562 28.9952 436.026 29.6889 436.343 30.4527C436.66 31.2164 436.824 32.0351 436.824 32.862V41.274C436.823 42.1002 436.659 42.9182 436.341 43.681C436.024 44.4439 435.559 45.1368 434.974 45.72C433.79 46.9003 432.187 47.5637 430.516 47.565H417.638M427.452 26.564V47.564" stroke="white" stroke-width="2" stroke-linecap="round" stroke-linejoin="round" style="mix-blend-mode:multiply"/>
<path d="M436.819 35.336H461.055C461.515 35.336 461.956 35.5183 462.282 35.8429C462.607 36.1676 462.791 36.6081 462.792 37.068C462.791 37.5278 462.607 37.9683 462.282 38.293C461.956 38.6176 461.515 38.8 461.055 38.8H436.819M397.019 53.495C397.019 54.5696 396.807 55.6337 396.394 56.6261C395.982 57.6185 395.378 58.5197 394.616 59.278C393.854 60.0384 392.949 60.6411 391.954 61.0517C390.958 61.4623 389.892 61.6727 388.815 61.671M375.798 35.336L380.369 30.77M384.243 35.336L388.821 30.77M392.683 35.336L397.26 30.77M379.418 78.01V80.31C379.418 81.028 379.131 81.717 378.622 82.225C378.113 82.733 377.422 83.018 376.701 83.018H367.977C367.257 83.0183 366.566 82.7331 366.056 82.225C365.804 81.9736 365.604 81.6749 365.468 81.3462C365.331 81.0174 365.261 80.6649 365.261 80.309V77.899M372.69 83.414C372.69 91.146 372.468 94.202 368.987 98.13C367.341 99.994 365.16 101.594 364.451 103.95C363.639 106.721 365.271 109.832 367.827 111.17C370.384 112.507 373.447 111.911 376.163 110.899C381.262 108.973 386.972 106.049 392.939 111.066" stroke="white" stroke-width="2" stroke-linecap="round" stroke-linejoin="round" style="mix-blend-mode:multiply"/>
</g>
</g>
<defs>
<clipPath id="clip0_11147_7709">
<rect width="425" height="131" fill="white" transform="translate(39.04 0.949951)"/>
</clipPath>
<clipPath id="clip1_11147_7709">
<rect width="425" height="131" fill="white" transform="translate(39.04 0.949951)"/>
</clipPath>
</defs>
</svg>
