<svg width="16" height="16" viewBox="0 0 16 16" fill="none" xmlns="http://www.w3.org/2000/svg">
<rect width="16" height="16" fill="white" style="mix-blend-mode:multiply"/>
<path d="M14.4999 13.7928L10.7238 10.0168C11.6312 8.92745 12.0836 7.53026 11.9871 6.11583C11.8905 4.70141 11.2524 3.37866 10.2054 2.42276C9.15843 1.46686 7.78323 0.951393 6.36588 0.983601C4.94853 1.01581 3.59816 1.59321 2.59568 2.59568C1.59321 3.59816 1.01581 4.94853 0.983601 6.36588C0.951393 7.78323 1.46686 9.15843 2.42276 10.2054C3.37866 11.2524 4.70141 11.8905 6.11583 11.9871C7.53026 12.0836 8.92745 11.6312 10.0168 10.7238L13.7928 14.4999L14.4999 13.7928ZM1.99987 6.49987C1.99987 5.60986 2.26379 4.73983 2.75826 3.99981C3.25273 3.25979 3.95553 2.68301 4.7778 2.34242C5.60007 2.00182 6.50487 1.91271 7.37778 2.08634C8.25069 2.25997 9.05252 2.68856 9.68185 3.31789C10.3112 3.94723 10.7398 4.74905 10.9134 5.62197C11.087 6.49488 10.9979 7.39968 10.6573 8.22195C10.3167 9.04422 9.73996 9.74702 8.99994 10.2415C8.25992 10.736 7.38989 10.9999 6.49987 10.9999C5.30681 10.9986 4.16298 10.524 3.31936 9.68039C2.47573 8.83677 2.0012 7.69294 1.99987 6.49987Z" fill="white"/>
</svg>
