<svg width="15" height="18" viewBox="0 0 15 18" fill="none" xmlns="http://www.w3.org/2000/svg">
<g clip-path="url(#clip0_11147_9112)">
<g clip-path="url(#clip1_11147_9112)">
<path d="M13.8761 13.5029C13.8331 13.6249 13.7901 13.7569 13.7421 13.8869C13.3401 14.9749 12.7301 15.9419 11.9901 16.8269C11.8471 16.9999 11.6801 17.1559 11.5081 17.2999C11.1806 17.5909 10.7627 17.7597 10.3251 17.7779C9.98509 17.7879 9.65909 17.7269 9.34509 17.5979C9.11709 17.5059 8.89309 17.4019 8.66209 17.3179C7.91209 17.0459 7.16709 17.0819 6.43009 17.3729C6.16409 17.4779 5.90209 17.5939 5.63109 17.6859C5.31709 17.7909 4.99109 17.8329 4.66109 17.7709C4.37733 17.7113 4.11112 17.5871 3.88309 17.4079C3.59763 17.188 3.34035 16.9338 3.11709 16.6509C2.04008 15.3518 1.29716 13.809 0.953086 12.1569C0.795371 11.4407 0.734827 10.7064 0.773086 9.97394C0.825086 9.09094 1.03009 8.25094 1.50209 7.49394C2.09409 6.54094 2.92909 5.91694 4.02809 5.65994C4.67287 5.51028 5.34809 5.56265 5.96209 5.80994C6.29309 5.93794 6.62609 6.06294 6.95909 6.18794C7.26509 6.30294 7.57109 6.30294 7.87809 6.18594C8.21809 6.05594 8.55809 5.92594 8.89809 5.79994C9.24809 5.67294 9.60409 5.56894 9.97509 5.53994C10.5246 5.49619 11.0773 5.56527 11.5991 5.74294C12.3461 5.99294 12.9541 6.43494 13.4131 7.07894L13.4481 7.12994C12.2911 7.93694 11.6321 9.00294 11.7281 10.4469C11.8241 11.8909 12.6011 12.8679 13.8761 13.5029ZM7.38209 5.35994C7.72409 5.36994 8.05209 5.30394 8.36909 5.17794C9.81009 4.60494 10.5651 3.07994 10.5421 1.91294C10.5401 1.81994 10.5341 1.72494 10.5301 1.61694C10.3811 1.63894 10.2461 1.64894 10.1161 1.68194C9.06409 1.93994 8.25309 2.52694 7.72109 3.47894C7.40909 4.03594 7.23609 4.62694 7.28909 5.27394C7.29309 5.34194 7.31809 5.35894 7.38209 5.35994Z" fill="white" style="mix-blend-mode:multiply"/>
</g>
</g>
<defs>
<clipPath id="clip0_11147_9112">
<rect width="14" height="17" fill="white" transform="translate(0.76001 0.949951)"/>
</clipPath>
<clipPath id="clip1_11147_9112">
<rect width="14" height="17" fill="white" transform="translate(0.76001 0.949951)"/>
</clipPath>
</defs>
</svg>
