<svg width="17" height="17" viewBox="0 0 17 17" fill="none" xmlns="http://www.w3.org/2000/svg">
<g clip-path="url(#clip0_11147_9142)">
<g clip-path="url(#clip1_11147_9142)">
<path d="M0.406982 2.17295V15.3329C0.406982 15.3599 0.416982 15.3879 0.432982 15.4129C0.450819 15.4367 0.475127 15.4547 0.502982 15.4649C0.531345 15.476 0.562206 15.4791 0.592189 15.4738C0.622172 15.4685 0.650122 15.4551 0.672982 15.4349L8.05098 8.75295L0.672982 2.07095C0.655979 2.05619 0.636168 2.04503 0.61474 2.03813C0.593312 2.03122 0.57071 2.02873 0.548292 2.03078C0.525874 2.03284 0.504103 2.0394 0.484287 2.05009C0.464472 2.06077 0.44702 2.07535 0.432982 2.09295C0.416201 2.11626 0.407112 2.14422 0.406982 2.17295ZM11.145 6.00795L1.89298 1.27395L1.88798 1.27095C1.72798 1.19095 1.57798 1.39095 1.70798 1.50795L8.95998 7.94795L11.145 6.00795ZM1.70798 15.9979C1.57798 16.1149 1.72798 16.3149 1.88798 16.2339L1.89398 16.2309L11.145 11.4979L8.95998 9.55795L1.70798 15.9979ZM14.88 7.91595L12.296 6.59595L9.86698 8.75295L12.297 10.9099L14.88 9.58995C15.0379 9.51436 15.1711 9.39566 15.2644 9.24755C15.3577 9.09945 15.4072 8.92798 15.4072 8.75295C15.4072 8.57791 15.3577 8.40644 15.2644 8.25834C15.1711 8.11024 15.0379 7.99154 14.88 7.91595Z" fill="white" style="mix-blend-mode:multiply"/>
</g>
</g>
<defs>
<clipPath id="clip0_11147_9142">
<rect width="16" height="16" fill="white" transform="translate(0.290039 0.449951)"/>
</clipPath>
<clipPath id="clip1_11147_9142">
<rect width="16" height="16" fill="white" transform="translate(0.290039 0.449951)"/>
</clipPath>
</defs>
</svg>
