<svg width="25" height="308" viewBox="0 0 25 308" fill="none" xmlns="http://www.w3.org/2000/svg">
<g clip-path="url(#clip0_11147_9385)">
<path fill-rule="evenodd" clip-rule="evenodd" d="M16.17 161.18C16.0295 161.039 15.9506 160.849 15.9506 160.65C15.9506 160.451 16.0295 160.261 16.17 160.12L21.64 154.65H0.949951C0.751039 154.65 0.560273 154.571 0.419621 154.43C0.278969 154.29 0.199951 154.099 0.199951 153.9C0.199951 153.701 0.278969 153.51 0.419621 153.37C0.560273 153.229 0.751039 153.15 0.949951 153.15H21.64L16.17 147.68C16.0375 147.538 15.9653 147.35 15.9688 147.156C15.9722 146.961 16.0509 146.776 16.1883 146.638C16.3257 146.501 16.5111 146.422 16.7054 146.419C16.8997 146.416 17.0878 146.488 17.23 146.62L23.98 153.37C24.1204 153.511 24.1993 153.701 24.1993 153.9C24.1993 154.099 24.1204 154.289 23.98 154.43L17.23 161.18C17.0893 161.321 16.8987 161.399 16.7 161.399C16.5012 161.399 16.3106 161.321 16.17 161.18Z" fill="#29363D"/>
</g>
<defs>
<clipPath id="clip0_11147_9385">
<rect width="24" height="24" fill="white" transform="translate(0.199951 141.9)"/>
</clipPath>
</defs>
</svg>
