<svg width="736" height="30" viewBox="0 0 736 30" fill="none" xmlns="http://www.w3.org/2000/svg">
<g clip-path="url(#clip0_11147_10013)">
<path fill-rule="evenodd" clip-rule="evenodd" d="M608.38 30C616.665 30 623.38 23.2842 623.38 15.0001C623.38 6.71581 616.665 0 608.38 0C600.096 0 593.38 6.71581 593.38 15.0001C593.38 23.2842 600.096 30 608.38 30ZM611.881 5.87089H610.969C610.159 5.87089 609.492 5.95764 608.767 6.23482C607.716 6.64809 605.963 7.78506 605.963 10.9895V11.8246C605.963 12.0572 605.774 12.2459 605.541 12.2459H605.474C604.678 12.2459 603.967 12.828 603.891 13.6207C603.804 14.5298 604.517 15.2948 605.408 15.2948H605.538C605.772 15.2948 605.963 15.4852 605.963 15.72V23.7767C605.963 24.5727 606.545 25.2839 607.337 25.3596C608.247 25.4464 609.012 24.7337 609.012 23.8423V15.8398C609.012 15.5387 609.256 15.2948 609.556 15.2948H609.778C610.574 15.2948 611.285 14.7128 611.361 13.92C611.447 13.0109 610.734 12.2459 609.843 12.2459H609.554C609.255 12.2459 609.012 12.0031 609.012 11.7035V10.9895C609.012 9.38436 609.618 9.1762 609.869 9.07752C610.232 8.93921 610.532 8.91981 610.969 8.91981H611.947C612.838 8.91981 613.551 8.15481 613.464 7.24567C613.388 6.45295 612.677 5.87089 611.881 5.87089Z" fill="#90A4AE"/>
</g>
<g clip-path="url(#clip1_11147_10013)">
<path fill-rule="evenodd" clip-rule="evenodd" d="M425.38 15C425.38 23.2843 418.664 30 410.38 30C402.096 30 395.38 23.2843 395.38 15C395.38 6.71573 402.096 0 410.38 0C418.664 0 425.38 6.71573 425.38 15ZM416.662 9.45161L417.327 9.44715C418.12 9.44715 418.756 10.0833 418.756 10.8647C418.756 11.0121 418.734 11.1572 418.689 11.2959C418.511 11.9209 418.428 12.1794 418.264 12.6909L418.173 12.9755C418.174 13.0331 418.175 13.0904 418.175 13.1472C418.175 15.4668 417.28 17.8123 415.72 19.5819C414.458 21.0132 412.198 22.7191 408.6 22.7191C407.102 22.7191 405.962 22.3479 405.271 22.0366C404.772 21.8123 403.447 21.2161 403.447 20.0719C403.447 19.2803 404.094 18.6362 404.889 18.6362C404.995 18.6362 405.1 18.6327 405.204 18.6253C404.751 18.1961 404.35 17.7081 404.025 17.1849C403.098 15.6966 402.323 13.2191 403.895 9.87113C404.103 9.4268 404.518 9.12587 405.006 9.06633C405.483 9.00902 405.97 9.20104 406.277 9.57739C407.168 10.6702 408.369 11.449 409.713 11.8192C410.169 9.94234 411.882 8.53094 413.88 8.53094C414.846 8.53094 415.778 8.85545 416.534 9.45062C416.573 9.45136 416.612 9.45161 416.662 9.45161Z" fill="#90A4AE"/>
<mask id="mask0_11147_10013" style="mask-type:luminance" maskUnits="userSpaceOnUse" x="395" y="0" width="31" height="30">
<path fill-rule="evenodd" clip-rule="evenodd" d="M425.38 15C425.38 23.2843 418.664 30 410.38 30C402.096 30 395.38 23.2843 395.38 15C395.38 6.71573 402.096 0 410.38 0C418.664 0 425.38 6.71573 425.38 15ZM416.662 9.45161L417.327 9.44715C418.12 9.44715 418.756 10.0833 418.756 10.8647C418.756 11.0121 418.734 11.1572 418.689 11.2959C418.511 11.9209 418.428 12.1794 418.264 12.6909L418.173 12.9755C418.174 13.0331 418.175 13.0904 418.175 13.1472C418.175 15.4668 417.28 17.8123 415.72 19.5819C414.458 21.0132 412.198 22.7191 408.6 22.7191C407.102 22.7191 405.962 22.3479 405.271 22.0366C404.772 21.8123 403.447 21.2161 403.447 20.0719C403.447 19.2803 404.094 18.6362 404.889 18.6362C404.995 18.6362 405.1 18.6327 405.204 18.6253C404.751 18.1961 404.35 17.7081 404.025 17.1849C403.098 15.6966 402.323 13.2191 403.895 9.87113C404.103 9.4268 404.518 9.12587 405.006 9.06633C405.483 9.00902 405.97 9.20104 406.277 9.57739C407.168 10.6702 408.369 11.449 409.713 11.8192C410.169 9.94234 411.882 8.53094 413.88 8.53094C414.846 8.53094 415.778 8.85545 416.534 9.45062C416.573 9.45136 416.612 9.45161 416.662 9.45161Z" fill="white"/>
</mask>
<g mask="url(#mask0_11147_10013)">
<path d="M417.327 9.44715V5.94715H417.315L417.303 5.94723L417.327 9.44715ZM416.662 9.45161V12.9516H416.673L416.685 12.9515L416.662 9.45161ZM418.689 11.2959L415.356 10.2283L415.339 10.2808L415.324 10.3338L418.689 11.2959ZM418.264 12.6909L414.931 11.6208L414.93 11.6268L418.264 12.6909ZM418.173 12.9755L414.839 11.9113L414.664 12.46L414.674 13.0358L418.173 12.9755ZM405.271 22.0366L406.708 18.8451L406.706 18.8444L405.271 22.0366ZM405.204 18.6253L405.454 22.1163L413.367 21.5486L407.613 16.0869L405.204 18.6253ZM404.025 17.1849L406.996 15.3358L406.995 15.3343L404.025 17.1849ZM403.895 9.87113L407.063 11.3587L407.063 11.3576L403.895 9.87113ZM405.006 9.06633L404.588 5.59132L404.581 5.59216L405.006 9.06633ZM406.277 9.57739L408.99 7.36559L408.988 7.36309L406.277 9.57739ZM409.713 11.8192L408.784 15.1936L412.263 16.1514L413.115 12.6448L409.713 11.8192ZM416.534 9.45062L414.368 12.2001L415.292 12.9277L416.467 12.95L416.534 9.45062ZM410.38 33.5C420.597 33.5 428.88 25.2173 428.88 15H421.88C421.88 21.3513 416.731 26.5 410.38 26.5V33.5ZM391.88 15C391.88 25.2173 400.163 33.5 410.38 33.5V26.5C404.029 26.5 398.88 21.3513 398.88 15H391.88ZM410.38 -3.5C400.163 -3.5 391.88 4.78273 391.88 15H398.88C398.88 8.64873 404.029 3.5 410.38 3.5V-3.5ZM428.88 15C428.88 4.78273 420.597 -3.5 410.38 -3.5V3.5C416.731 3.5 421.88 8.64873 421.88 15H428.88ZM417.303 5.94723L416.638 5.95169L416.685 12.9515L417.35 12.9471L417.303 5.94723ZM422.256 10.8647C422.256 8.13085 420.034 5.94715 417.327 5.94715V12.9471C416.207 12.9471 415.256 12.0357 415.256 10.8647H422.256ZM422.023 12.3635C422.179 11.8763 422.256 11.3708 422.256 10.8647H415.256C415.256 10.6534 415.289 10.4382 415.356 10.2283L422.023 12.3635ZM421.596 13.761C421.766 13.2314 421.862 12.9334 422.055 12.258L415.324 10.3338C415.16 10.9083 415.09 11.1274 414.931 11.6208L421.596 13.761ZM421.507 14.0397L421.598 13.7551L414.93 11.6268L414.839 11.9113L421.507 14.0397ZM421.675 13.1472C421.675 13.07 421.674 12.9926 421.673 12.9152L414.674 13.0358C414.674 13.0736 414.675 13.1108 414.675 13.1472H421.675ZM418.345 21.8968C420.458 19.4997 421.675 16.3347 421.675 13.1472H414.675C414.675 14.599 414.101 16.1252 413.094 17.2674L418.345 21.8968ZM408.6 26.2191C413.456 26.2191 416.607 23.868 418.345 21.8968L413.094 17.2674C412.308 18.1587 410.94 19.2191 408.6 19.2191V26.2191ZM403.834 25.228C404.886 25.7016 406.515 26.2191 408.6 26.2191V19.2191C407.688 19.2191 407.039 18.9942 406.708 18.8451L403.834 25.228ZM399.947 20.0719C399.947 22.1422 401.175 23.4735 401.964 24.1147C402.754 24.7574 403.601 25.1234 403.835 25.2287L406.706 18.8444C406.584 18.7893 406.512 18.7561 406.443 18.7185C406.371 18.6797 406.357 18.665 406.38 18.6838C406.399 18.699 406.529 18.8059 406.664 19.0309C406.815 19.2829 406.947 19.646 406.947 20.0719H399.947ZM404.889 15.1362C402.177 15.1362 399.947 17.3316 399.947 20.0719H406.947C406.947 21.2289 406.011 22.1362 404.889 22.1362V15.1362ZM404.953 15.1343C404.94 15.1352 404.918 15.1362 404.889 15.1362V22.1362C405.071 22.1362 405.26 22.1302 405.454 22.1163L404.953 15.1343ZM401.053 19.034C401.542 19.8197 402.134 20.5376 402.794 21.1637L407.613 16.0869C407.369 15.8546 407.159 15.5965 406.996 15.3358L401.053 19.034ZM400.726 8.38356C398.578 12.9601 399.595 16.6936 401.054 19.0354L406.995 15.3343C406.761 14.9584 406.561 14.4839 406.508 13.9033C406.456 13.3424 406.523 12.5082 407.063 11.3587L400.726 8.38356ZM404.581 5.59216C402.898 5.7978 401.446 6.84959 400.726 8.38466L407.063 11.3576C406.76 12.004 406.139 12.4539 405.43 12.5405L404.581 5.59216ZM408.988 7.36309C407.913 6.04727 406.24 5.39283 404.588 5.59132L405.423 12.5413C404.725 12.6252 404.027 12.3548 403.567 11.7917L408.988 7.36309ZM410.642 8.44471C409.997 8.26709 409.421 7.89392 408.99 7.36559L403.565 11.7892C404.916 13.4466 406.741 14.6309 408.784 15.1936L410.642 8.44471ZM413.88 5.03094C410.22 5.03094 407.138 7.59376 406.312 10.9935L413.115 12.6448C413.153 12.4886 413.25 12.3277 413.404 12.2052C413.552 12.0865 413.718 12.0309 413.88 12.0309V5.03094ZM418.7 6.70112C417.328 5.62087 415.634 5.03094 413.88 5.03094V12.0309C414.059 12.0309 414.228 12.09 414.368 12.2001L418.7 6.70112ZM416.662 5.95161C416.624 5.95161 416.609 5.95141 416.6 5.95125L416.467 12.95C416.537 12.9513 416.601 12.9516 416.662 12.9516V5.95161Z" fill="#90A4AE"/>
</g>
</g>
<g clip-path="url(#clip2_11147_10013)">
<path d="M451.38 14.6197V15.4308C451.589 23.1875 457.838 29.417 465.271 30H467.559C475.037 29.4106 481.178 23.1242 481.38 15.4182V14.6197C481.178 6.77424 474.821 0.411714 467.166 0.0188088C458.928 -0.399445 451.608 6.21023 451.38 14.6197Z" fill="#90A4AE"/>
<path fill-rule="evenodd" clip-rule="evenodd" d="M466.412 7.53488C468.801 7.53488 469.086 7.54122 470.031 7.58558C470.905 7.6236 471.374 7.7757 471.691 7.8961C472.109 8.06087 472.407 8.25732 472.717 8.57418C473.028 8.89104 473.224 9.19523 473.389 9.61982C473.51 9.94301 473.655 10.4246 473.7 11.3118C473.744 12.2751 473.75 12.5603 473.75 14.9937C473.75 17.4272 473.744 17.7124 473.7 18.6756C473.662 19.5628 473.516 20.0445 473.389 20.3677C473.224 20.7923 473.034 21.0964 472.717 21.4133C472.407 21.7302 472.109 21.9266 471.691 22.0914C471.374 22.2181 470.899 22.3639 470.031 22.4019C469.086 22.4463 468.801 22.4526 466.412 22.4526C464.023 22.4526 463.738 22.4463 462.793 22.4019C461.919 22.3639 461.45 22.2118 461.133 22.0914C460.715 21.9266 460.417 21.7302 460.106 21.4133C459.796 21.0964 459.599 20.7923 459.435 20.3677C459.314 20.0445 459.169 19.5628 459.124 18.6756C459.08 17.7124 459.074 17.4272 459.074 14.9937C459.074 12.5603 459.08 12.2751 459.124 11.3118C459.162 10.4246 459.308 9.94301 459.435 9.61982C459.599 9.19523 459.79 8.89104 460.106 8.57418C460.417 8.25732 460.715 8.06087 461.133 7.8961C461.45 7.76936 461.925 7.6236 462.793 7.58558L462.828 7.5842C463.745 7.54725 464.052 7.53488 466.412 7.53488ZM466.412 5.89355C463.979 5.89355 463.674 5.90623 462.724 5.95059C461.773 5.99495 461.12 6.14704 460.55 6.37518C459.961 6.60966 459.46 6.92018 458.966 7.42715C458.465 7.93413 458.161 8.4411 457.933 9.04313C457.711 9.61982 457.559 10.2852 457.515 11.2548C457.47 12.2244 457.464 12.5349 457.464 15.0064C457.464 17.4653 457.476 17.7852 457.514 18.7433L457.515 18.758C457.559 19.7276 457.711 20.3867 457.933 20.9697C458.161 21.5654 458.465 22.0787 458.966 22.5857C459.466 23.0927 459.961 23.4032 460.55 23.6377C461.12 23.8658 461.773 24.0179 462.724 24.0622C463.681 24.1066 463.985 24.1193 466.412 24.1193C468.839 24.1193 469.15 24.1066 470.1 24.0622C471.051 24.0179 471.704 23.8658 472.274 23.6377C472.863 23.4032 473.364 23.0927 473.858 22.5857C474.359 22.0787 474.663 21.5717 474.891 20.9697C475.113 20.393 475.265 19.7276 475.309 18.758C475.354 17.7884 475.36 17.4779 475.36 15.0064C475.36 12.5475 475.348 12.2276 475.31 11.2696L475.309 11.2548C475.265 10.2852 475.113 9.62615 474.891 9.04313C474.663 8.44744 474.359 7.93413 473.858 7.42715C473.358 6.92018 472.863 6.60966 472.274 6.37518C471.704 6.14704 471.051 5.99495 470.1 5.95059C469.15 5.90623 468.839 5.89355 466.412 5.89355ZM466.412 10.323C463.871 10.323 461.818 12.4143 461.818 14.9999C461.818 17.5854 463.877 19.6767 466.412 19.6767C468.947 19.6767 471.006 17.5854 471.006 14.9999C471.006 12.4143 468.947 10.323 466.412 10.323ZM466.412 18.0354C464.764 18.0354 463.427 16.6792 463.427 14.9999C463.427 13.3205 464.764 11.9644 466.412 11.9644C468.06 11.9644 469.397 13.3205 469.397 14.9999C469.397 16.6792 468.06 18.0354 466.412 18.0354ZM472.261 10.1393C472.261 10.7413 471.782 11.2293 471.19 11.2293C470.599 11.2293 470.119 10.7413 470.119 10.1393C470.119 9.53731 470.599 9.04929 471.19 9.04929C471.782 9.04929 472.261 9.53731 472.261 10.1393Z" fill="white" style="mix-blend-mode:multiply"/>
</g>
<defs>
<clipPath id="clip0_11147_10013">
<rect width="30" height="30" fill="white" transform="translate(593.38)"/>
</clipPath>
<clipPath id="clip1_11147_10013">
<rect width="30" height="30" fill="white" transform="translate(395.38)"/>
</clipPath>
<clipPath id="clip2_11147_10013">
<rect width="30" height="30" fill="white" transform="translate(451.38)"/>
</clipPath>
</defs>
</svg>
