<svg width="25" height="25" viewBox="0 0 25 25" fill="none" xmlns="http://www.w3.org/2000/svg">
<path fill-rule="evenodd" clip-rule="evenodd" d="M16.17 19.5801C16.0295 19.4395 15.9506 19.2489 15.9506 19.0501C15.9506 18.8514 16.0295 18.6608 16.17 18.5201L21.64 13.0501H0.949951C0.751039 13.0501 0.560273 12.9711 0.419621 12.8305C0.278969 12.6898 0.199951 12.4991 0.199951 12.3001C0.199951 12.1012 0.278969 11.9105 0.419621 11.7698C0.560273 11.6292 0.751039 11.5501 0.949951 11.5501H21.64L16.17 6.08014C16.0375 5.93796 15.9653 5.74992 15.9688 5.55562C15.9722 5.36132 16.0509 5.17593 16.1883 5.03852C16.3257 4.9011 16.5111 4.82239 16.7054 4.81896C16.8997 4.81554 17.0878 4.88766 17.23 5.02014L23.98 11.7701C24.1204 11.9108 24.1993 12.1014 24.1993 12.3001C24.1993 12.4989 24.1204 12.6895 23.98 12.8301L17.23 19.5801C17.0893 19.7206 16.8987 19.7995 16.7 19.7995C16.5012 19.7995 16.3106 19.7206 16.17 19.5801Z" fill="#29363D"/>
</svg>
